<?xml version="1.0" encoding="utf-8"?>
<!-- Generator: Adobe Illustrator 16.0.0, SVG Export Plug-In . SVG Version: 6.00 Build 0)  -->
<!DOCTYPE svg PUBLIC "-//W3C//DTD SVG 1.1//EN" "http://www.w3.org/Graphics/SVG/1.1/DTD/svg11.dtd">
<svg version="1.1" id="Layer_1" xmlns="http://www.w3.org/2000/svg" xmlns:xlink="http://www.w3.org/1999/xlink" x="0px" y="0px"
	 width="167.879px" height="87.502px" viewBox="0 0 167.879 87.502" enable-background="new 0 0 167.879 87.502"
	 xml:space="preserve">
<g>
	<defs>
		<rect id="SVGID_1_" width="167.879" height="87.502"/>
	</defs>
	<clipPath id="SVGID_2_">
		<use xlink:href="#SVGID_1_"  overflow="visible"/>
	</clipPath>
	<path clip-path="url(#SVGID_2_)" fill="#BCBDC0" d="M53.64,0h113.327v42.192C125.568,45.504,3.6,31.32,53.64,0"/>
	<path clip-path="url(#SVGID_2_)" fill="#EF3E42" d="M0,0h45.432c-41.904,16.561-59.4,44.136-18.216,68.688H0V0z"/>
	<polygon clip-path="url(#SVGID_2_)" points="5.527,85.752 0.058,85.752 0.058,75.205 5.527,75.205 5.527,76.612 1.589,76.612 
		1.589,79.768 5.527,79.768 5.527,81.143 1.589,81.143 1.589,84.299 5.527,84.299 	"/>
	<polygon clip-path="url(#SVGID_2_)" points="8.933,85.752 7.401,85.752 7.401,75.221 8.974,75.221 14.151,83.191 14.088,75.221 
		15.588,75.221 15.588,85.752 14.127,85.752 8.838,77.543 	"/>
	<path clip-path="url(#SVGID_2_)" d="M21.161,80.425h6.545c-0.073,1.646-0.608,2.979-1.605,4c-0.997,1.021-2.26,1.53-3.789,1.53
		c-0.794,0-1.526-0.151-2.196-0.456c-0.67-0.304-1.272-0.754-1.804-1.353c-0.45-0.496-0.791-1.062-1.024-1.696
		c-0.232-0.634-0.348-1.312-0.348-2.036c0-0.737,0.14-1.438,0.421-2.098c0.28-0.661,0.692-1.257,1.234-1.787
		c0.513-0.512,1.086-0.894,1.72-1.146c0.634-0.254,1.338-0.381,2.112-0.381c1.069,0,2.007,0.249,2.813,0.748
		c0.805,0.498,1.414,1.207,1.825,2.127h-1.89c-0.349-0.445-0.765-0.78-1.249-1.006c-0.484-0.225-1.023-0.338-1.618-0.338
		c-0.499,0-0.973,0.095-1.423,0.283c-0.45,0.188-0.849,0.461-1.197,0.818c-0.363,0.372-0.646,0.804-0.849,1.296
		c-0.203,0.493-0.305,0.995-0.305,1.506c0,0.55,0.092,1.071,0.276,1.561c0.184,0.49,0.448,0.913,0.791,1.271
		c0.364,0.377,0.782,0.669,1.257,0.877c0.474,0.207,0.958,0.311,1.452,0.311c0.804,0,1.513-0.215,2.128-0.644
		c0.615-0.429,1.121-1.064,1.518-1.903h-4.795V80.425z"/>
	<rect x="29.099" y="75.205" clip-path="url(#SVGID_2_)" width="1.531" height="10.547"/>
	<polygon clip-path="url(#SVGID_2_)" points="33.998,85.752 32.467,85.752 32.467,75.221 34.038,75.221 39.217,83.191 
		39.154,75.221 40.654,75.221 40.654,85.752 39.193,85.752 33.904,77.543 	"/>
	<polygon clip-path="url(#SVGID_2_)" points="47.958,85.752 42.489,85.752 42.489,75.205 47.958,75.205 47.958,76.612 
		44.021,76.612 44.021,79.768 47.958,79.768 47.958,81.143 44.021,81.143 44.021,84.299 47.958,84.299 	"/>
	<polygon clip-path="url(#SVGID_2_)" points="55.302,85.752 49.833,85.752 49.833,75.205 55.302,75.205 55.302,76.612 
		51.364,76.612 51.364,79.768 55.302,79.768 55.302,81.143 51.364,81.143 51.364,84.299 55.302,84.299 	"/>
	<path clip-path="url(#SVGID_2_)" d="M58.708,76.628h1.146c0.961,0,1.664,0.159,2.109,0.48c0.444,0.32,0.667,0.822,0.667,1.507
		c0,0.704-0.259,1.229-0.776,1.573c-0.517,0.344-1.305,0.517-2.363,0.517h-0.783V76.628 M58.708,80.879l3.496,4.874h1.91
		l-2.984-4.032c0.876-0.043,1.593-0.354,2.149-0.931c0.557-0.577,0.835-1.296,0.835-2.156c0-1.106-0.333-1.951-0.998-2.536
		c-0.665-0.584-1.63-0.877-2.893-0.877h-3.046v10.532h1.531V80.879z"/>
	<rect x="65.556" y="75.205" clip-path="url(#SVGID_2_)" width="1.531" height="10.547"/>
	<polygon clip-path="url(#SVGID_2_)" points="70.455,85.752 68.924,85.752 68.924,75.221 70.495,75.221 75.674,83.191 
		75.611,75.221 77.111,75.221 77.111,85.752 75.65,85.752 70.361,77.543 	"/>
	<path clip-path="url(#SVGID_2_)" d="M82.684,80.425h6.544c-0.072,1.646-0.607,2.979-1.604,4c-0.997,1.021-2.261,1.53-3.789,1.53
		c-0.794,0-1.526-0.151-2.196-0.456c-0.67-0.304-1.272-0.754-1.804-1.353c-0.45-0.496-0.791-1.062-1.024-1.696
		c-0.232-0.634-0.348-1.312-0.348-2.036c0-0.737,0.14-1.438,0.421-2.098c0.28-0.661,0.691-1.257,1.233-1.787
		c0.514-0.512,1.086-0.894,1.721-1.146c0.634-0.254,1.338-0.381,2.111-0.381c1.069,0,2.008,0.249,2.813,0.748
		c0.805,0.498,1.414,1.207,1.825,2.127h-1.891c-0.349-0.445-0.765-0.78-1.249-1.006c-0.483-0.225-1.022-0.338-1.617-0.338
		c-0.499,0-0.974,0.095-1.424,0.283c-0.449,0.188-0.849,0.461-1.196,0.818c-0.363,0.372-0.646,0.804-0.851,1.296
		c-0.202,0.493-0.304,0.995-0.304,1.506c0,0.55,0.092,1.071,0.276,1.561c0.184,0.49,0.447,0.913,0.791,1.271
		c0.363,0.377,0.781,0.669,1.257,0.877c0.474,0.207,0.958,0.311,1.452,0.311c0.804,0,1.513-0.215,2.128-0.644
		c0.614-0.429,1.121-1.064,1.517-1.903h-4.794V80.425z"/>
	<path clip-path="url(#SVGID_2_)" d="M98.603,80.425h6.545c-0.073,1.646-0.608,2.979-1.605,4c-0.997,1.021-2.26,1.53-3.789,1.53
		c-0.794,0-1.525-0.151-2.196-0.456c-0.671-0.304-1.271-0.754-1.804-1.353c-0.45-0.496-0.792-1.062-1.023-1.696
		c-0.232-0.634-0.349-1.312-0.349-2.036c0-0.737,0.141-1.438,0.421-2.098c0.28-0.661,0.692-1.257,1.234-1.787
		c0.512-0.512,1.086-0.894,1.72-1.146c0.634-0.254,1.338-0.381,2.112-0.381c1.069,0,2.007,0.249,2.812,0.748
		c0.806,0.498,1.414,1.207,1.825,2.127h-1.891c-0.348-0.445-0.764-0.78-1.248-1.006c-0.484-0.225-1.023-0.338-1.619-0.338
		c-0.498,0-0.972,0.095-1.422,0.283c-0.45,0.188-0.849,0.461-1.197,0.818c-0.364,0.372-0.646,0.804-0.85,1.296
		c-0.203,0.493-0.306,0.995-0.306,1.506c0,0.55,0.093,1.071,0.276,1.561c0.186,0.49,0.449,0.913,0.792,1.271
		c0.363,0.377,0.782,0.669,1.257,0.877c0.475,0.207,0.958,0.311,1.452,0.311c0.804,0,1.513-0.215,2.128-0.644
		s1.12-1.064,1.518-1.903h-4.794V80.425z"/>
	<path clip-path="url(#SVGID_2_)" d="M108.07,76.628h1.146c0.961,0,1.665,0.159,2.11,0.48c0.442,0.32,0.666,0.822,0.666,1.507
		c0,0.704-0.259,1.229-0.776,1.573c-0.517,0.344-1.304,0.517-2.363,0.517h-0.783V76.628 M108.07,80.879l3.496,4.874h1.91
		l-2.983-4.032c0.877-0.043,1.594-0.354,2.149-0.931c0.557-0.577,0.834-1.296,0.834-2.156c0-1.106-0.332-1.951-0.998-2.536
		c-0.665-0.584-1.63-0.877-2.892-0.877h-3.047v10.532h1.53V80.879z"/>
	<path clip-path="url(#SVGID_2_)" d="M116.333,78.931c0.202-0.492,0.482-0.925,0.845-1.297c0.348-0.356,0.746-0.63,1.194-0.817
		c0.447-0.188,0.921-0.283,1.418-0.283c0.554,0,1.059,0.104,1.514,0.308c0.457,0.205,0.883,0.523,1.285,0.952
		c0.337,0.372,0.593,0.779,0.769,1.221c0.177,0.441,0.265,0.906,0.265,1.395c0,1.148-0.365,2.11-1.1,2.885
		c-0.731,0.775-1.644,1.162-2.732,1.162c-0.492,0-0.976-0.104-1.447-0.311c-0.473-0.208-0.89-0.5-1.252-0.877
		c-0.342-0.357-0.605-0.78-0.788-1.271s-0.275-1.01-0.275-1.561C116.027,79.925,116.13,79.423,116.333,78.931 M114.782,82.45
		c0.231,0.635,0.571,1.2,1.021,1.696c0.531,0.599,1.131,1.05,1.799,1.353c0.668,0.305,1.399,0.456,2.19,0.456
		c0.787,0,1.517-0.149,2.189-0.448c0.674-0.299,1.283-0.742,1.828-1.331c0.464-0.502,0.812-1.067,1.043-1.696
		c0.232-0.63,0.348-1.318,0.348-2.065c0-0.753-0.136-1.454-0.405-2.105c-0.271-0.651-0.673-1.239-1.208-1.766
		c-0.522-0.511-1.098-0.896-1.729-1.153c-0.63-0.259-1.313-0.388-2.052-0.388c-0.719,0-1.391,0.129-2.016,0.388
		c-0.625,0.258-1.195,0.638-1.705,1.14c-0.541,0.53-0.951,1.126-1.232,1.787c-0.278,0.66-0.42,1.359-0.42,2.098
		C114.434,81.138,114.551,81.816,114.782,82.45"/>
	<path clip-path="url(#SVGID_2_)" d="M126.484,75.205h1.53v6.703c0,0.955,0.144,1.618,0.427,1.99
		c0.285,0.371,0.771,0.557,1.457,0.557c0.651,0,1.112-0.188,1.384-0.568c0.27-0.379,0.404-1.037,0.404-1.979v-6.703h1.531v6.688
		c0,0.715-0.04,1.262-0.119,1.644c-0.08,0.381-0.212,0.712-0.395,0.992c-0.319,0.482-0.707,0.841-1.163,1.075
		c-0.457,0.233-0.995,0.351-1.614,0.351c-0.676,0-1.247-0.113-1.711-0.34c-0.463-0.228-0.864-0.584-1.203-1.072
		c-0.188-0.279-0.323-0.593-0.406-0.94c-0.082-0.349-0.122-0.917-0.122-1.709V75.205z"/>
	<path clip-path="url(#SVGID_2_)" d="M136.489,76.612h1.154c0.741,0,1.291,0.144,1.651,0.434c0.357,0.289,0.538,0.732,0.538,1.33
		c0,0.597-0.179,1.033-0.531,1.308c-0.354,0.275-0.923,0.412-1.709,0.412h-1.104V76.612 M136.489,81.502h1.213
		c1.129,0,2.023-0.29,2.685-0.872c0.662-0.581,0.992-1.362,0.992-2.341c0-0.555-0.13-1.07-0.391-1.546
		c-0.262-0.476-0.61-0.841-1.051-1.097c-0.269-0.159-0.585-0.271-0.943-0.34c-0.36-0.067-0.885-0.102-1.574-0.102h-2.447v10.547
		h1.517V81.502z"/>
	<path clip-path="url(#SVGID_2_)" d="M139.527,87.502v-0.903c0.18-0.039,0.308-0.118,0.385-0.238
		c0.077-0.121,0.115-0.305,0.115-0.551v-0.151h-0.5v-1.688h1.422v1.551c0,0.586-0.114,1.037-0.346,1.356
		C140.375,87.197,140.015,87.405,139.527,87.502"/>
	<polygon clip-path="url(#SVGID_2_)" points="150.843,85.752 145.858,85.752 145.858,75.205 147.39,75.205 147.39,84.299 
		150.843,84.299 	"/>
	<polygon clip-path="url(#SVGID_2_)" points="157.057,85.752 152.072,85.752 152.072,75.205 153.604,75.205 153.604,84.299 
		157.057,84.299 	"/>
	<path clip-path="url(#SVGID_2_)" d="M167.879,83.112c-0.459,0.919-1.093,1.622-1.901,2.11c-0.81,0.488-1.747,0.732-2.815,0.732
		c-0.793,0-1.521-0.152-2.191-0.455c-0.668-0.304-1.27-0.755-1.801-1.354c-0.448-0.497-0.789-1.062-1.021-1.696
		c-0.232-0.634-0.347-1.313-0.347-2.036c0-0.733,0.139-1.43,0.42-2.087c0.279-0.658,0.689-1.257,1.23-1.798
		c0.514-0.501,1.081-0.882,1.706-1.141c0.626-0.257,1.299-0.387,2.02-0.387c1.081,0,2.031,0.256,2.85,0.768
		c0.819,0.512,1.437,1.234,1.852,2.17h-1.797c-0.338-0.466-0.754-0.816-1.246-1.053c-0.492-0.235-1.051-0.354-1.674-0.354
		c-0.497,0-0.972,0.095-1.42,0.282c-0.449,0.188-0.847,0.461-1.194,0.818c-0.363,0.372-0.646,0.804-0.85,1.297
		c-0.202,0.492-0.303,0.994-0.303,1.506c0,0.551,0.09,1.07,0.273,1.561c0.185,0.491,0.446,0.914,0.79,1.271
		c0.361,0.377,0.779,0.669,1.252,0.876c0.474,0.208,0.955,0.312,1.447,0.312c0.604,0,1.147-0.114,1.632-0.344
		c0.485-0.23,0.885-0.563,1.198-0.999H167.879z"/>
	<path clip-path="url(#SVGID_2_)" fill="#EF3E42" d="M73.678,63.946c-2.039,2.031-4.854,3.58-8.445,4.648
		c-3.594,1.068-7.76,1.602-12.498,1.602c-3.518,0-6.762-0.333-9.733-1c-2.97-0.667-5.635-1.667-7.994-3.001
		c-1.996-1.12-3.508-2.39-4.537-3.81s-1.543-2.947-1.543-4.584c0-1.635,0.621-3.188,1.865-4.665
		c1.244-1.474,3.069-2.813,5.471-4.019c2.273-1.141,4.799-1.996,7.576-2.566c2.777-0.57,5.764-0.855,8.959-0.855
		c4.805,0,9.024,0.564,12.658,1.689c3.635,1.125,6.375,2.729,8.221,4.811h-8c-1.498-1.04-3.338-1.822-5.521-2.344
		c-2.184-0.52-4.655-0.781-7.415-0.781c-2.203,0-4.3,0.213-6.291,0.635c-1.99,0.424-3.755,1.037-5.294,1.84
		c-1.606,0.848-2.858,1.824-3.756,2.929c-0.899,1.108-1.348,2.237-1.348,3.389c0,1.259,0.406,2.442,1.219,3.548
		c0.812,1.107,1.98,2.062,3.502,2.865c1.603,0.848,3.455,1.505,5.552,1.971c2.098,0.467,4.239,0.699,6.422,0.699
		c2.676,0,5.088-0.258,7.241-0.773c2.15-0.516,3.921-1.258,5.314-2.227H73.678z"/>
	<path clip-path="url(#SVGID_2_)" fill="#EF3E42" d="M84.675,49.321h5.087c4.298,0,7.442,0.357,9.431,1.072s2.982,1.84,2.982,3.377
		c0,1.582-1.156,2.756-3.467,3.523c-2.311,0.77-5.829,1.152-10.557,1.152h-3.477V49.321 M84.675,58.827l15.6,10.869h8.524l-13.374-9
		c3.93-0.105,7.141-0.803,9.635-2.09c2.493-1.285,3.739-2.882,3.739-4.791c0-2.465-1.487-4.35-4.462-5.658
		c-2.977-1.307-7.287-1.961-12.936-1.961H77.925v23.5h6.75V58.827z"/>
	<polygon clip-path="url(#SVGID_2_)" fill="#EF3E42" points="109.232,46.196 116.179,46.196 126.355,64.327 135.494,46.196 
		140.599,46.196 149.72,64.327 159.83,46.196 166.732,46.196 152.607,69.696 146.482,69.696 138.015,52.175 129.482,69.696 
		123.482,69.696 	"/>
</g>
</svg>